<svg width="393" height="844" viewBox="0 0 393 844" fill="none" xmlns="http://www.w3.org/2000/svg">
<path fill-rule="evenodd" clip-rule="evenodd" d="M245.446 -104.273C318.244 -114.278 358.529 -18.5362 411.232 32.6495C455.143 75.296 492.588 118.717 527.097 169.268C577.407 242.965 696.897 314.356 658.536 394.916C617.901 480.249 453.603 389.384 389.294 458.659C294.553 560.715 378.374 798.333 245.446 839.904C131.365 875.581 90.8273 669.047 16.9695 575.097C-33.2927 511.162 -76.7424 449.065 -117.245 378.547C-170.703 285.474 -321.545 183.48 -257.384 97.4299C-182.259 -3.32391 -6.89325 120.879 109.773 74.0802C180.853 45.5674 169.57 -93.8454 245.446 -104.273Z" fill="#1FD393"/>
</svg>
