<svg width="220" height="220" viewBox="0 0 220 220" fill="none" xmlns="http://www.w3.org/2000/svg">
<g clip-path="url(#clip0_263_7039)">
<rect width="220" height="220" rx="24" fill="black"/>
<path d="M99.3203 70.0667C93.543 69.4493 88.4629 71.1781 84.1798 74.9074C78.6267 79.7481 74.3186 85.552 72.1273 92.6648C71.0814 96.1225 70.1102 99.6295 69.5126 103.161C68.7157 107.73 68.7406 112.324 70.3592 116.794C73.0984 124.327 79.8469 127.957 87.7408 126.204C93.294 124.969 97.9755 122.178 101.387 117.757C107.463 109.879 110.974 100.963 111.298 90.936C111.248 86.6387 110.775 82.4154 109.381 78.3156C107.737 73.5243 104.5 70.6348 99.3203 70.0667ZM102.782 105.088C102.607 105.507 102.159 105.804 101.835 106.199C94.788 91.8004 95.5351 93.307 83.7316 83.5268C85.3004 81.0077 87.2179 78.8096 89.6831 77.1055C90.8784 76.2905 92.248 75.5989 93.6425 75.1791C99.8929 73.2527 103.429 75.3025 104.998 81.5757C106.965 89.6764 106.168 97.5055 102.782 105.088Z" fill="white"/>
<path d="M149.921 90.0468C149.348 84.0454 147.68 78.4144 144.044 73.5243C139.761 67.7698 133.162 66.4115 126.887 69.9185C124.396 71.3262 122.255 73.1539 120.835 75.6236C119.466 78.0439 118.246 80.563 116.976 83.0575C112.618 91.6769 112.244 100.741 114.286 109.978C115.108 113.682 116.527 117.189 119.018 120.202C121.782 123.537 125.268 125.043 129.576 124.129C131.344 123.759 133.137 123.265 134.756 122.475C139.661 120.079 143.421 116.448 145.812 111.534C148.576 105.828 150.245 99.8517 149.971 93.4551C149.921 92.3437 150.02 91.1829 149.921 90.0468ZM140.408 110.57C139.462 112.398 138.366 114.226 135.876 115.263C135.552 113.238 135.229 111.484 135.005 109.731C134.457 105.335 133.461 101.013 131.942 96.8633C130.074 91.7263 127.584 86.9597 123.052 83.3292C124.371 79.0565 126.364 75.4507 130.597 73.4996C133.934 71.9684 136.773 72.3882 139.014 75.2778C140.608 77.3277 141.952 79.674 142.849 82.0943C146.385 91.8992 145.214 101.432 140.408 110.57Z" fill="white"/>
<path d="M107.189 146.406C103.354 145.912 100.789 143.27 100.366 139.318C100.266 138.478 100.291 137.614 100.291 136.75C100.291 136.478 100.291 136.182 100.291 135.91C100.291 134.675 100.291 133.415 100.291 132.082C100.291 131.489 100.291 130.896 100.291 130.279V129.933L99.9675 129.81C98.4734 129.266 97.5023 129.044 96.7552 129.044C94.7381 129.044 94.3646 130.773 94.1654 132.378C93.9662 134.008 93.8916 135.811 93.9663 137.861C94.0908 141.096 95.0121 143.838 96.7055 145.937C98.3988 148.036 100.889 149.568 104.052 150.432C105.446 150.802 106.915 151 108.409 151C113.539 151 118.37 148.777 120.736 145.344C121.209 144.677 121.607 143.912 121.956 143.097C123.351 139.837 123.699 136.305 123.873 133.292C123.948 131.884 122.778 130.674 121.184 130.551C121.084 130.551 121.01 130.551 120.91 130.551C119.267 130.551 117.997 131.711 117.648 133.588C117.499 134.354 117.374 135.169 117.25 135.935C116.976 137.713 116.677 139.54 116.104 141.245C115.008 144.505 112.17 146.456 108.484 146.456C108.086 146.48 107.637 146.456 107.189 146.406Z" fill="white"/>
</g>
<defs>
<clipPath id="clip0_263_7039">
<rect width="220" height="220" fill="white"/>
</clipPath>
</defs>
</svg>
