<svg width="25" height="24" viewBox="0 0 25 24" fill="none" xmlns="http://www.w3.org/2000/svg">
<path d="M22.502 11.1511H2.49951V21.1757H22.502V11.1511Z" fill="#212121"/>
<path d="M2.49951 20.9492V21.4042C2.49951 21.7342 2.76788 22.0025 3.09792 22.0025H21.9053C22.2353 22.0025 22.5037 21.7342 22.5037 21.4042V20.9492H2.49951Z" fill="#B0BEC5"/>
<path d="M21.8118 21.7751C21.6285 21.7751 21.4785 21.6251 21.4785 21.4418V21.0352H22.1451V21.4418C22.1451 21.6251 21.9968 21.7751 21.8118 21.7751Z" fill="#B9E4EA"/>
<path d="M3.17169 21.7751C2.98837 21.7751 2.83838 21.6251 2.83838 21.4418V21.0352H3.50501V21.4418C3.50501 21.6251 3.35668 21.7751 3.17169 21.7751Z" fill="#B9E4EA"/>
<path d="M22.2153 20.6469H21.402C21.2453 20.6469 21.1187 20.5203 21.1187 20.3636V12.7143C21.1187 12.5576 21.2453 12.4309 21.402 12.4309H22.2153C22.3719 12.4309 22.4986 12.5576 22.4986 12.7143V20.3636C22.4986 20.5203 22.3719 20.6469 22.2153 20.6469Z" fill="#616161"/>
<path d="M3.59612 20.6469H2.78283C2.62617 20.6469 2.49951 20.5203 2.49951 20.3636V12.7143C2.49951 12.5576 2.62617 12.4309 2.78283 12.4309H3.59612C3.75278 12.4309 3.87944 12.5576 3.87944 12.7143V20.3636C3.87944 20.5203 3.75111 20.6469 3.59612 20.6469Z" fill="#616161"/>
<path d="M6.03955 7.87796H3.99799C3.72634 7.87796 3.50635 7.65797 3.50635 7.38632V6.18305C3.50635 5.91139 3.72634 5.69141 3.99799 5.69141H6.03955C6.3112 5.69141 6.53119 5.91139 6.53119 6.18305V7.38632C6.52952 7.65797 6.30953 7.87796 6.03955 7.87796Z" fill="#90A4AE"/>
<path d="M4.54603 8.08609H3.87939V6.35285C3.87939 6.16952 4.02939 6.01953 4.21271 6.01953C4.39603 6.01953 4.54603 6.16952 4.54603 6.35285V8.08609Z" fill="#94D1E0"/>
<path d="M8.893 7.30006H7.97472C7.79139 7.30006 7.64307 7.15174 7.64307 6.96841V6.05013C7.64307 5.86681 7.73139 5.78681 7.97472 5.71848C8.21804 5.65015 8.66135 5.64182 8.893 5.71848C9.08299 5.78181 9.22465 5.86681 9.22465 6.05013V6.96841C9.22465 7.15174 9.07466 7.30006 8.893 7.30006Z" fill="#546E7A"/>
<path d="M9.05667 8.09208H7.8084C7.40176 8.09208 7.07178 7.7621 7.07178 7.35545V7.24713C7.07178 6.84048 7.40176 6.5105 7.8084 6.5105H9.05667C9.46332 6.5105 9.7933 6.84048 9.7933 7.24713V7.35545C9.79497 7.7621 9.46498 8.09208 9.05667 8.09208Z" fill="#90A4AE"/>
<path d="M22.1236 7.02734H3.1746C2.80122 7.02734 2.49951 7.32899 2.49951 7.70231V11.3221H22.502V7.40566C22.502 7.19567 22.332 7.02734 22.1236 7.02734Z" fill="#B0BEC5"/>
<path d="M13.8993 21.5185C16.9179 21.5185 19.365 19.0715 19.365 16.0528C19.365 13.0342 16.9179 10.5872 13.8993 10.5872C10.8807 10.5872 8.43359 13.0342 8.43359 16.0528C8.43359 19.0715 10.8807 21.5185 13.8993 21.5185Z" fill="#616161"/>
<path d="M13.8984 20.7986C16.5193 20.7986 18.644 18.6739 18.644 16.053C18.644 13.432 16.5193 11.3074 13.8984 11.3074C11.2775 11.3074 9.15283 13.432 9.15283 16.053C9.15283 18.6739 11.2775 20.7986 13.8984 20.7986Z" fill="#E0E0E0"/>
<path d="M13.8985 19.4416C15.7701 19.4416 17.2873 17.9244 17.2873 16.0528C17.2873 14.1813 15.7701 12.6641 13.8985 12.6641C12.027 12.6641 10.5098 14.1813 10.5098 16.0528C10.5098 17.9244 12.027 19.4416 13.8985 19.4416Z" fill="#2F7889"/>
<path d="M13.8991 20.4137C16.3074 20.4137 18.2597 18.4614 18.2597 16.0532C18.2597 13.6449 16.3074 11.6926 13.8991 11.6926C11.4909 11.6926 9.53857 13.6449 9.53857 16.0532C9.53857 18.4614 11.4909 20.4137 13.8991 20.4137Z" fill="black"/>
<path d="M13.8988 19.3756C15.7342 19.3756 17.222 17.8877 17.222 16.0524C17.222 14.2171 15.7342 12.7292 13.8988 12.7292C12.0635 12.7292 10.5757 14.2171 10.5757 16.0524C10.5757 17.8877 12.0635 19.3756 13.8988 19.3756Z" fill="#2F7889"/>
<path d="M13.1116 13.2641C12.0599 13.5024 11.4316 14.5257 11.4316 15.2807C11.4316 15.8923 11.8366 15.739 11.9666 15.5173C12.3016 14.949 12.7066 14.4757 13.4049 14.2774C13.6849 14.1974 14.0115 14.0224 13.9782 13.6957C13.9315 13.2308 13.4699 13.1824 13.1116 13.2641Z" fill="#94D1E0"/>
<path opacity="0.25" d="M13.8988 17.5368C14.718 17.5368 15.382 16.8727 15.382 16.0536C15.382 15.2344 14.718 14.5703 13.8988 14.5703C13.0796 14.5703 12.4155 15.2344 12.4155 16.0536C12.4155 16.8727 13.0796 17.5368 13.8988 17.5368Z" fill="black"/>
<path d="M20.5826 10.5399H17.5578C17.3811 10.5399 17.2378 10.3966 17.2378 10.22V8.11173C17.2378 7.93507 17.3811 7.79175 17.5578 7.79175H20.5826C20.7593 7.79175 20.9026 7.93507 20.9026 8.11173V10.2216C20.9026 10.3966 20.7609 10.5399 20.5826 10.5399Z" fill="#78909C"/>
<path d="M17.2378 10.14V8.14673C17.2378 7.95007 17.3961 7.79175 17.5928 7.79175H20.5576C20.7243 7.79175 20.7926 7.88341 20.7926 7.88341L17.3528 10.4533C17.3528 10.4533 17.2378 10.3833 17.2378 10.14Z" fill="#757575"/>
<path d="M20.2331 8.29419H17.9082V10.0391H20.2331V8.29419Z" fill="#212121"/>
<path d="M11.9643 9.73608C11.9277 9.73608 11.896 9.70608 11.896 9.66775V7.94284C11.896 7.90618 11.926 7.87451 11.9643 7.87451H15.8341C15.8708 7.87451 15.9025 7.90451 15.9025 7.94284V9.66775C15.9025 9.70442 15.8725 9.73608 15.8341 9.73608H11.9643Z" fill="#FCEBCD"/>
<path d="M15.8173 7.95958V9.65283H11.9808V7.95958H15.8173ZM15.834 7.79126H11.9642C11.8808 7.79126 11.8125 7.85959 11.8125 7.94292V9.66783C11.8125 9.75116 11.8808 9.81949 11.9642 9.81949H15.834C15.9173 9.81949 15.9856 9.75116 15.9856 9.66783V7.94292C15.9856 7.85959 15.919 7.79126 15.834 7.79126Z" fill="#78909C"/>
<path d="M13.8158 9.41538C13.7442 9.41538 13.6875 9.35705 13.6875 9.28705V8.32877C13.6875 8.2571 13.7458 8.20044 13.8158 8.20044C13.8875 8.20044 13.9442 8.25877 13.9442 8.32877V9.28705C13.9442 9.35705 13.8875 9.41538 13.8158 9.41538Z" fill="white"/>
<path d="M13.2419 9.41582C13.1452 9.41582 13.0669 9.33749 13.0669 9.24083V8.37421C13.0669 8.27755 13.1452 8.19922 13.2419 8.19922C13.3385 8.19922 13.4169 8.27755 13.4169 8.37421V9.24083C13.4169 9.33749 13.3385 9.41582 13.2419 9.41582Z" fill="white"/>
<path d="M12.5899 9.41582C12.4632 9.41582 12.3599 9.31249 12.3599 9.18583V8.42921C12.3599 8.30255 12.4632 8.19922 12.5899 8.19922C12.7165 8.19922 12.8198 8.30255 12.8198 8.42921V9.18583C12.8198 9.31249 12.7165 9.41582 12.5899 9.41582Z" fill="white"/>
<path d="M22.1451 11.0874H21.4785V7.68756C21.4785 7.50424 21.6285 7.35425 21.8118 7.35425C21.9952 7.35425 22.1451 7.50424 22.1451 7.68756V11.0874Z" fill="#B9E4EA"/>
<path d="M3.69251 11.0874H3.02588V7.68756C3.02588 7.50424 3.17587 7.35425 3.35919 7.35425C3.54252 7.35425 3.69251 7.50424 3.69251 7.68756V11.0874Z" fill="#B9E4EA"/>
</svg>
