<svg width="29" height="28" viewBox="0 0 29 28" fill="none" xmlns="http://www.w3.org/2000/svg">
<path d="M14.25 4C19.7728 4 24.25 8.47715 24.25 14C24.25 19.5228 19.7728 24 14.25 24C8.72715 24 4.25 19.5228 4.25 14C4.25 8.47715 8.72715 4 14.25 4Z" stroke="black" stroke-width="2.33333"/>
<path d="M8.08154 19.3269L16.3607 15.8001L20.2081 8.21094L11.929 11.7377L8.08154 19.3269ZM14.1448 12.6573C14.8173 12.6573 15.3575 13.1525 15.3575 13.7689C15.3575 14.3854 14.8173 14.8805 14.1448 14.8805C13.4723 14.8805 12.9322 14.3854 12.9322 13.7689C12.9322 13.1525 13.4723 12.6573 14.1448 12.6573Z" fill="black"/>
</svg>
