<svg width="29" height="28" viewBox="0 0 29 28" fill="none" xmlns="http://www.w3.org/2000/svg">
<mask id="mask0_97_3925" style="mask-type:alpha" maskUnits="userSpaceOnUse" x="0" y="0" width="29" height="28">
<rect x="0.675293" width="28" height="28" fill="#D9D9D9"/>
</mask>
<g mask="url(#mask0_97_3925)">
<path d="M7.67513 16.3333C7.67513 17.3444 7.8793 18.3019 8.28763 19.2057C8.69596 20.1102 9.2793 20.9028 10.0376 21.5833C10.0182 21.4861 10.0085 21.3986 10.0085 21.3208V21.0583C10.0085 20.4361 10.1251 19.8528 10.3585 19.3083C10.5918 18.7639 10.9321 18.2681 11.3793 17.8208L14.6751 14.5833L17.971 17.8208C18.4182 18.2681 18.7585 18.7639 18.9918 19.3083C19.2251 19.8528 19.3418 20.4361 19.3418 21.0583V21.3208C19.3418 21.3986 19.3321 21.4861 19.3126 21.5833C20.071 20.9028 20.6543 20.1102 21.0626 19.2057C21.471 18.3019 21.6751 17.3444 21.6751 16.3333C21.6751 15.3611 21.4955 14.4422 21.1361 13.5765C20.776 12.7116 20.2557 11.9389 19.5751 11.2583C19.1862 11.5111 18.7779 11.7005 18.3501 11.8265C17.9224 11.9533 17.4849 12.0167 17.0376 12.0167C15.8321 12.0167 14.7871 11.6181 13.9028 10.8208C13.0177 10.0236 12.5071 9.04167 12.371 7.875C11.6126 8.51667 10.9418 9.18244 10.3585 9.87233C9.77513 10.563 9.28435 11.263 8.88613 11.9723C8.48713 12.6824 8.18574 13.4069 7.98196 14.1458C7.77741 14.8847 7.67513 15.6139 7.67513 16.3333ZM14.6751 17.85L13.0126 19.4833C12.7987 19.6972 12.6335 19.9403 12.5168 20.2125C12.4001 20.4847 12.3418 20.7667 12.3418 21.0583C12.3418 21.6806 12.5705 22.2153 13.0278 22.6625C13.4844 23.1097 14.0335 23.3333 14.6751 23.3333C15.3168 23.3333 15.8663 23.1097 16.3236 22.6625C16.7802 22.2153 17.0085 21.6806 17.0085 21.0583C17.0085 20.7472 16.9501 20.4602 16.8335 20.1973C16.7168 19.9352 16.5515 19.6972 16.3376 19.4833L14.6751 17.85ZM14.6751 3.5V7.35C14.6751 8.01111 14.9038 8.56528 15.3611 9.0125C15.8177 9.45972 16.3765 9.68333 17.0376 9.68333C17.3876 9.68333 17.7135 9.61061 18.0153 9.46517C18.3163 9.31894 18.5835 9.1 18.8168 8.80833L19.3418 8.16667C20.7807 8.98333 21.9182 10.1208 22.7543 11.5792C23.5904 13.0375 24.0085 14.6222 24.0085 16.3333C24.0085 18.9389 23.1043 21.1458 21.296 22.9542C19.4876 24.7625 17.2807 25.6667 14.6751 25.6667C12.0696 25.6667 9.86263 24.7625 8.0543 22.9542C6.24596 21.1458 5.3418 18.9389 5.3418 16.3333C5.3418 13.825 6.18296 11.4431 7.8653 9.1875C9.54685 6.93194 11.8168 5.03611 14.6751 3.5Z" fill="#1C1B1F"/>
</g>
</svg>
