<?xml version="1.0" encoding="iso-8859-1"?>
<!-- Generator: Adobe Illustrator 16.0.0, SVG Export Plug-In . SVG Version: 6.00 Build 0)  -->
<!DOCTYPE svg PUBLIC "-//W3C//DTD SVG 1.1//EN" "http://www.w3.org/Graphics/SVG/1.1/DTD/svg11.dtd">
<svg version="1.1" id="Capa_1" xmlns="http://www.w3.org/2000/svg" xmlns:xlink="http://www.w3.org/1999/xlink" x="0px" y="0px"
	 width="57.25px" height="57.251px" viewBox="0 0 57.25 57.251" style="enable-background:new 0 0 57.25 57.251;"
	 xml:space="preserve">
<g>
	<path d="M26.825,5.097c-1.313,0.426-1.455,2.13-0.781,2.946c0.674,0.816,1.349,1.349,2.449,0.887
		c1.1-0.461,1.384-1.597,0.958-2.874C29.025,4.776,27.604,4.843,26.825,5.097z M27.712,8.007c-1.029-0.249-1.136-1.313,0-1.775
		c0.625-0.254,0.923,0.143,0.958,0.745C28.706,7.581,28.741,8.255,27.712,8.007z M15.432,18.299
		c-0.746,0.106-0.276,3.339-0.391,4.543c-0.071,0.745-0.142,1.632,0.391,1.774c0.532,0.142,0.39,0,0.461-0.497
		c0.071-0.497,0.284-3.62,0.355-4.224c0.071-0.604,0.816-0.39,1.526-0.39s0.355-0.143,0.355-0.888
		C18.129,17.873,16.177,18.192,15.432,18.299z M42.086,41.83c-0.532-0.106-0.816-0.143-0.709,1.633
		c0.106,1.774-0.214,6.885-0.214,7.631c0,0.745,0.036,1.064-0.354,1.242C40.418,52.513,38.68,52.3,38.68,52.3
		c-0.71-0.106-1.597-0.142-1.668,0.426c-0.071,0.568,0.106,0.746,1.491,0.854c1.384,0.105,3.193,0.035,3.406-0.427
		s0.461-1.525,0.427-3.868C42.299,46.94,42.618,41.937,42.086,41.83z M45.777,33.063c0.213-3.938-0.036-11.18,0.071-14.658
		c0.106-3.479-1.952-3.869-3.728-3.904c-1.773-0.035-9.263,0.143-9.617,0.213c-0.355,0.071-0.036-0.639,0.177-1.846
		c0.213-1.206,0.958-4.116-0.532-8.908c-1.491-4.791-6.424-5.358-8.482-1.029c-2.059,4.33-0.781,9.192-0.426,10.471
		c0.355,1.277-0.035,1.349-0.284,1.384c0,0-2.981-0.106-7.098-0.249c-4.117-0.142-4.152,3.088-4.046,4.649
		c0.106,1.562-0.213,5.963-0.355,10.647c-0.142,4.686,0.071,16.857-0.071,22.892s8.908,4.33,13.948,4.225
		c5.04-0.106,15.013-0.07,17.426,0.105c2.413,0.178,2.875-2.2,3.017-4.613C45.919,50.027,45.564,37.004,45.777,33.063z
		 M44.18,53.081c-0.497,2.944-2.165,2.129-3.869,2.2c-1.704,0.07-8.269,0.142-12.209,0.142c-3.939,0-10.434,0.105-12.457-0.283
		c-2.023-0.391-2.129-1.811-2.129-5.075c0-3.266,0.035-19.235,0.106-23.425c0.071-4.188,0.248-8.376,0.674-9.156
		c0.426-0.781,2.058-1.136,3.655-0.994c1.597,0.143,4.721,0.036,5.821,0c1.1-0.035,0.966,0.589,1.136,1.172
		c0.319,1.1,0.674,1.349,1.349,1.419c0.674,0.071,0.603-0.604,0.106-1.81c-0.497-1.207-1.065-2.059-1.917-6.814
		c-0.851-4.757,1.633-8.128,3.088-8.199c1.455-0.071,2.591,0.852,3.372,2.981c0.781,2.129,0.461,5.892,0.213,7.453
		s-2.094,3.69-1.029,4.685c1.064,0.994,1.597-0.248,1.845-0.675c0.249-0.426,2.307-0.319,3.869-0.213
		c1.562,0.105,4.472,0.213,6.779,0.354c2.307,0.142,1.49,4.578,1.49,8.34c0,3.764-0.354,13.983-0.354,16.539
		S44.677,50.135,44.18,53.081z"/>
</g>
<g>
</g>
<g>
</g>
<g>
</g>
<g>
</g>
<g>
</g>
<g>
</g>
<g>
</g>
<g>
</g>
<g>
</g>
<g>
</g>
<g>
</g>
<g>
</g>
<g>
</g>
<g>
</g>
<g>
</g>
</svg>
