<svg width="29" height="28" viewBox="0 0 29 28" fill="none" xmlns="http://www.w3.org/2000/svg">
<path d="M15 4C20.5228 4 25 8.47715 25 14C25 19.5228 20.5228 24 15 24C9.47715 24 5 19.5228 5 14C5 8.47715 9.47715 4 15 4Z" stroke="black" stroke-width="2.34375"/>
<mask id="mask0_580_11157" style="mask-type:alpha" maskUnits="userSpaceOnUse" x="6" y="5" width="18" height="18">
<path d="M15.0001 5.42871C19.734 5.42871 23.5716 9.26627 23.5716 14.0001C23.5716 18.734 19.734 22.5716 15.0001 22.5716C10.2663 22.5716 6.42871 18.734 6.42871 14.0001C6.42871 9.26627 10.2663 5.42871 15.0001 5.42871Z" fill="#D9D9D9"/>
</mask>
<g mask="url(#mask0_580_11157)">
<path d="M2.14307 32.5719V31.1433C2.14307 24.0425 7.8994 18.2861 15.0002 18.2861C22.101 18.2861 27.8574 24.0425 27.8574 31.1433V32.5718C27.8574 39.6726 22.101 45.429 15.0002 45.429C7.8994 45.429 2.14307 39.6727 2.14307 32.5719Z" stroke="black" stroke-width="2.34375"/>
<path d="M15.0002 9.71484C16.5782 9.71484 17.8574 10.994 17.8574 12.572C17.8574 14.1499 16.5782 15.4291 15.0002 15.4291C13.4223 15.4291 12.1431 14.1499 12.1431 12.572C12.1431 10.994 13.4223 9.71484 15.0002 9.71484Z" stroke="black" stroke-width="2.34375"/>
</g>
</svg>
