<svg width="32" height="32" viewBox="0 0 32 32" fill="none" xmlns="http://www.w3.org/2000/svg">
<rect width="32" height="32" rx="8" fill="#EFEFEF"/>
<mask id="mask0_291_4381" style="mask-type:alpha" maskUnits="userSpaceOnUse" x="6" y="6" width="20" height="20">
<rect x="6" y="6" width="20" height="20" fill="#D9D9D9"/>
</mask>
<g mask="url(#mask0_291_4381)">
<path d="M7.6665 26.0005V22.6671H24.3332V26.0005H7.6665ZM9.33317 21.0005V17.8755L16.8748 10.3338L19.9998 13.4588L12.4582 21.0005H9.33317ZM10.9998 19.3338H11.7498L17.6665 13.4588L16.8748 12.6671L10.9998 18.5838V19.3338ZM20.9373 12.5421L17.8123 9.41714L19.3123 7.91714C19.4651 7.75048 19.6596 7.67048 19.8957 7.67714C20.1318 7.68436 20.3262 7.76436 20.479 7.91714L22.4373 9.87548C22.5901 10.0283 22.6665 10.2194 22.6665 10.4488C22.6665 10.6777 22.5901 10.8755 22.4373 11.0421L20.9373 12.5421Z" fill="black"/>
</g>
</svg>
